<?xml version="1.0" standalone="no"?>
<!DOCTYPE svg PUBLIC "-//W3C//DTD SVG 20010904//EN"
 "http://www.w3.org/TR/2001/REC-SVG-20010904/DTD/svg10.dtd">
<svg version="1.0" xmlns="http://www.w3.org/2000/svg"
 width="96.000000pt" height="96.000000pt" viewBox="0 0 96.000000 96.000000"
 preserveAspectRatio="xMidYMid meet">

<g transform="translate(0.000000,96.000000) scale(0.100000,-0.100000)"
fill="#000000" stroke="none">
<path d="M654 855 c-3 -8 2 -45 11 -82 52 -205 -58 -407 -263 -483 -48 -18
-71 -21 -147 -17 -50 3 -101 7 -115 9 -79 10 35 -129 146 -178 111 -49 253
-49 362 1 74 34 166 125 202 199 86 178 49 369 -95 505 -66 62 -91 73 -101 46z
m115 -90 c24 -26 55 -72 69 -103 24 -51 27 -69 27 -167 0 -104 -2 -114 -32
-176 -40 -80 -120 -159 -200 -197 -52 -24 -69 -27 -168 -27 -104 0 -114 2
-175 32 -58 28 -180 133 -155 133 6 0 38 -5 73 -10 304 -43 554 237 477 533
-8 32 -15 60 -15 63 0 11 58 -37 99 -81z"/>
<path d="M780 608 c0 -19 18 -43 25 -36 9 9 -4 48 -16 48 -5 0 -9 -6 -9 -12z"/>
<path d="M796 469 c-4 -28 -14 -69 -23 -90 -15 -40 -10 -67 8 -39 16 25 39
112 39 147 0 51 -17 39 -24 -18z"/>
<path d="M590 217 c0 -8 7 -20 15 -27 12 -10 15 -10 15 3 0 8 -7 20 -15 27
-12 10 -15 10 -15 -3z"/>
<path d="M367 193 c-11 -10 -8 -43 3 -43 6 0 10 11 10 25 0 26 -2 29 -13 18z"/>
<path d="M520 176 c0 -14 5 -26 10 -26 6 0 10 9 10 19 0 11 -4 23 -10 26 -6 4
-10 -5 -10 -19z"/>
<path d="M440 165 c0 -14 5 -25 10 -25 6 0 10 11 10 25 0 14 -4 25 -10 25 -5
0 -10 -11 -10 -25z"/>
<path d="M223 764 c-11 -22 -32 -43 -56 -56 -21 -10 -37 -23 -35 -28 2 -5 19
-19 38 -32 19 -13 44 -40 55 -61 11 -20 22 -37 25 -37 3 0 14 17 25 37 11 20
40 49 63 64 l44 28 -42 26 c-23 14 -50 42 -62 61 -11 18 -24 34 -29 34 -5 0
-17 -16 -26 -36z m92 -66 c32 -14 31 -19 -5 -40 -17 -9 -35 -28 -41 -41 l-11
-24 -45 44 c-41 42 -43 46 -26 59 10 7 20 14 23 14 3 0 14 14 24 31 l18 31 19
-31 c10 -17 30 -37 44 -43z"/>
<path d="M438 569 l-38 -39 41 -42 c32 -34 42 -39 50 -27 5 8 9 17 9 21 0 4
14 14 30 23 37 19 38 28 5 43 -14 7 -30 23 -37 37 -6 14 -14 25 -17 24 -3 0
-23 -18 -43 -40z m61 -60 c-19 -19 -20 -19 -44 -1 l-24 19 22 21 21 22 22 -21
c22 -21 22 -21 3 -40z"/>
</g>
</svg>
