<svg width="100" height="100" viewBox="0 0 100 100" xmlns="http://www.w3.org/2000/svg">
  <defs>
    <radialGradient id="coconutGradient" cx="0.3" cy="0.3" r="0.8">
      <stop offset="0%" stop-color="#D4AC0D"/>
      <stop offset="100%" stop-color="#8B4513"/>
    </radialGradient>
  </defs>
  
  <!-- Coconut body -->
  <ellipse cx="50" cy="55" rx="32" ry="35" fill="url(#coconutGradient)" stroke="#6D4C41" stroke-width="2"/>
  
  <!-- Coconut fiber texture -->
  <path d="M25 35 Q30 40 25 45" fill="none" stroke="#5D4037" stroke-width="1.5" opacity="0.7"/>
  <path d="M30 50 Q35 55 30 60" fill="none" stroke="#5D4037" stroke-width="1.5" opacity="0.7"/>
  <path d="M70 40 Q75 45 70 50" fill="none" stroke="#5D4037" stroke-width="1.5" opacity="0.7"/>
  <path d="M75 55 Q80 60 75 65" fill="none" stroke="#5D4037" stroke-width="1.5" opacity="0.7"/>
  <path d="M35 25 Q40 30 35 35" fill="none" stroke="#5D4037" stroke-width="1.5" opacity="0.7"/>
  <path d="M65 30 Q70 35 65 40" fill="none" stroke="#5D4037" stroke-width="1.5" opacity="0.7"/>
  
  <!-- Coconut eyes and mouth -->
  <circle cx="42" cy="45" r="4" fill="#3E2723"/>
  <circle cx="58" cy="45" r="4" fill="#3E2723"/>
  <ellipse cx="50" cy="60" rx="6" ry="4" fill="#3E2723"/>
  
  <!-- Inner circles for eyes -->
  <circle cx="43" cy="44" r="1.5" fill="#8B4513"/>
  <circle cx="59" cy="44" r="1.5" fill="#8B4513"/>
</svg>
