<?xml version="1.0" encoding="iso-8859-1"?>
<!-- Generator: Adobe Illustrator 19.0.0, SVG Export Plug-In . SVG Version: 6.00 Build 0)  -->
<svg version="1.1" id="Layer_1" xmlns="http://www.w3.org/2000/svg" xmlns:xlink="http://www.w3.org/1999/xlink" x="0px" y="0px"
	 viewBox="0 0 512 512" style="enable-background:new 0 0 512 512;" xml:space="preserve">
<path style="fill:#B857D0;" d="M429.789,160.441c-0.47,3.404-0.553,6.704-0.251,9.815l0.345,3.467l-1.149,3.279
	c-2.746,7.811-5.607,15.172-8.124,21.667c-1.723,4.459-3.362,8.667-4.636,12.217c-22.492,62.276-44.786,111.687-70.149,155.491
	c-30.96,53.442-70.619,111.134-130.013,133.74C195.148,507.98,174.274,512,154.497,512c-6.276,0-12.447-0.407-18.461-1.222
	c-20.205-2.736-38.677-10.139-54.476-21.73c-6.589-4.803-12.708-10.358-18.294-16.592c-20.424-22.795-31.973-54.027-32.527-87.953
	c-0.543-33.038,9.272-64.751,27.65-89.31c32.37-43.251,83.985-65.836,134.075-85.258c51.124-19.819,89.55-46.519,117.482-81.604
	c0.741-0.929,1.483-1.88,2.214-2.83c1.598-2.078,3.467-4.626,5.639-7.57c2.569-3.508,5.492-7.487,8.677-11.643l2.287-2.986
	l3.404-1.629c1.42-0.668,2.84-1.441,4.229-2.297l30.313-18.608l-6.745,34.928c-1.921,10.097-3.602,31.66,0.856,45.13
	c0.23,0.7,0.48,1.378,0.741,2.026c12.562-0.313,29.947-8.782,40.034-15.005c1.42-0.867,2.694-1.702,3.79-2.454l29.29-20.184
	l-3.811,27.483L429.789,160.441z"/>
<path style="fill:#9331B2;" d="M352.545,176.998l-9.634,14.35L81.56,489.049c15.799,11.591,34.27,18.994,54.476,21.73
	c6.015,0.814,12.186,1.222,18.461,1.222c19.777,0,40.65-4.02,61.315-11.883c59.394-22.607,99.052-80.299,130.013-133.74
	c25.363-43.804,47.657-93.215,70.149-155.491c1.274-3.55,2.913-7.758,4.636-12.217c2.517-6.495,5.378-13.856,8.124-21.667
	l0.001-0.003L352.545,176.998L352.545,176.998z"/>
<path style="fill:#00A653;" d="M452.959,218.801l-7.487,11.236l-12.217-5.753c-1.149-0.543-25.311-12.238-32.934-40.295
	c-14.984,6.871-34.824,13.032-52.147,8.688l-5.263-1.326l-3.31-4.281c-10.922-14.118-13.24-34.74-12.958-51.207
	c-28.663,4.292-49.098-13.167-50.121-14.065l-10.17-8.876l7.288-11.371c23.484-36.62,51.761-58.579,84.037-65.252
	c28.058-5.806,52.064,1.681,65.69,7.79c13.178-17.522,10.505-39.314,10.463-39.565l15.151-2.214L464.832,0
	c0.23,1.598,4.668,34.187-15.694,61.983c10.766,10.651,24.58,28.527,29.906,53.672C485.862,147.9,477.091,182.598,452.959,218.801z"
	/>
<path style="fill:#EDCFF3;" d="M73.457,375.465c-0.032-1.957-0.06-19.711,8.833-40.473c8.443-19.71,26.723-45.765,65.867-57.955
	l9.314,29.909c-52.929,16.484-52.701,67.487-52.692,68L73.457,375.465z"/>
<path style="fill:#008040;" d="M452.959,218.801l-7.487,11.236l-12.217-5.753c-1.149-0.543-25.311-12.238-32.934-40.295
	c-14.984,6.871-34.824,13.032-52.147,8.688l-5.263-1.326l91.764-136.696c0,0,14.974-14.452,14.305-52.345L464.832,0
	c0.23,1.598,4.668,34.187-15.694,61.983c10.766,10.651,24.58,28.527,29.906,53.672C485.862,147.9,477.091,182.598,452.959,218.801z"
	/>
<g>
</g>
<g>
</g>
<g>
</g>
<g>
</g>
<g>
</g>
<g>
</g>
<g>
</g>
<g>
</g>
<g>
</g>
<g>
</g>
<g>
</g>
<g>
</g>
<g>
</g>
<g>
</g>
<g>
</g>
</svg>
