<svg width="100" height="100" viewBox="0 0 100 100" xmlns="http://www.w3.org/2000/svg">
  <defs>
    <radialGradient id="mangoGradient" cx="0.3" cy="0.3" r="0.8">
      <stop offset="0%" stop-color="#FFE135"/>
      <stop offset="50%" stop-color="#FFA500"/>
      <stop offset="100%" stop-color="#FF6347"/>
    </radialGradient>
  </defs>
  
  <!-- Mango body -->
  <path d="M30 45 Q25 35 35 25 Q50 20 65 25 Q75 35 70 45 Q75 55 70 65 Q65 75 50 80 Q35 75 30 65 Q25 55 30 45 Z" fill="url(#mangoGradient)" stroke="#E67E22" stroke-width="1"/>
  
  <!-- Mango spots -->
  <ellipse cx="45" cy="40" rx="3" ry="2" fill="#FF8C00" opacity="0.7" transform="rotate(20 45 40)"/>
  <ellipse cx="55" cy="55" rx="2" ry="3" fill="#FF8C00" opacity="0.7" transform="rotate(-15 55 55)"/>
  <circle cx="40" cy="60" r="2" fill="#FF8C00" opacity="0.7"/>
  
  <!-- Leaf -->
  <ellipse cx="65" cy="25" rx="3" ry="7" fill="#27AE60" transform="rotate(30 65 25)"/>
  <path d="M68 18 Q70 22 68 26 Q66 22 68 18" fill="#229954"/>
  
  <!-- Stem -->
  <rect x="67" y="22" width="2" height="5" fill="#8B4513" rx="1" transform="rotate(30 67 22)"/>
</svg>
