<svg width="100" height="100" viewBox="0 0 100 100" xmlns="http://www.w3.org/2000/svg">
  <defs>
    <radialGradient id="papayaGradient" cx="0.3" cy="0.3" r="0.8">
      <stop offset="0%" stop-color="#FFE135"/>
      <stop offset="50%" stop-color="#FF8C00"/>
      <stop offset="100%" stop-color="#FF6347"/>
    </radialGradient>
  </defs>
  
  <!-- Papaya body -->
  <ellipse cx="50" cy="55" rx="25" ry="35" fill="url(#papayaGradient)" stroke="#E67E22" stroke-width="1"/>
  
  <!-- Papaya center (cut view) -->
  <ellipse cx="50" cy="55" rx="18" ry="28" fill="#FFEB3B" opacity="0.8"/>
  
  <!-- Seeds -->
  <circle cx="50" cy="45" r="2" fill="#2C3E50"/>
  <circle cx="45" cy="50" r="1.5" fill="#2C3E50"/>
  <circle cx="55" cy="52" r="1.5" fill="#2C3E50"/>
  <circle cx="48" cy="60" r="2" fill="#2C3E50"/>
  <circle cx="52" cy="62" r="1.5" fill="#2C3E50"/>
  <circle cx="50" cy="70" r="1.5" fill="#2C3E50"/>
  <circle cx="46" cy="55" r="1" fill="#2C3E50"/>
  <circle cx="54" cy="57" r="1" fill="#2C3E50"/>
  
  <!-- Papaya skin pattern -->
  <path d="M35 40 Q40 42 35 45" fill="none" stroke="#E67E22" stroke-width="1" opacity="0.6"/>
  <path d="M65 50 Q70 52 65 55" fill="none" stroke="#E67E22" stroke-width="1" opacity="0.6"/>
  <path d="M30 60 Q35 62 30 65" fill="none" stroke="#E67E22" stroke-width="1" opacity="0.6"/>
  
  <!-- Leaf -->
  <ellipse cx="50" cy="18" rx="4" ry="8" fill="#27AE60" transform="rotate(0 50 18)"/>
  <path d="M50 10 Q52 14 50 18 Q48 14 50 10" fill="#229954"/>
</svg>
