<svg width="100" height="100" viewBox="0 0 100 100" xmlns="http://www.w3.org/2000/svg">
  <defs>
    <radialGradient id="strawberryGradient" cx="0.3" cy="0.3" r="0.8">
      <stop offset="0%" stop-color="#FF6B6B"/>
      <stop offset="100%" stop-color="#E74C3C"/>
    </radialGradient>
  </defs>
  
  <!-- Strawberry body -->
  <path d="M50 25 Q35 30 35 55 Q35 75 50 85 Q65 75 65 55 Q65 30 50 25 Z" fill="url(#strawberryGradient)" stroke="#C0392B" stroke-width="1"/>
  
  <!-- Seeds -->
  <ellipse cx="45" cy="40" rx="1.5" ry="2" fill="#F4D03F" transform="rotate(20 45 40)"/>
  <ellipse cx="55" cy="38" rx="1.5" ry="2" fill="#F4D03F" transform="rotate(-15 55 38)"/>
  <ellipse cx="42" cy="55" rx="1.5" ry="2" fill="#F4D03F" transform="rotate(30 42 55)"/>
  <ellipse cx="58" cy="53" rx="1.5" ry="2" fill="#F4D03F" transform="rotate(-25 58 53)"/>
  <ellipse cx="47" cy="70" rx="1.5" ry="2" fill="#F4D03F" transform="rotate(10 47 70)"/>
  <ellipse cx="53" cy="68" rx="1.5" ry="2" fill="#F4D03F" transform="rotate(-20 53 68)"/>
  
  <!-- Leaves -->
  <path d="M40 25 Q45 20 50 25 Q55 20 60 25" fill="none" stroke="#27AE60" stroke-width="2" stroke-linecap="round"/>
  <path d="M42 25 Q45 15 48 25" fill="#27AE60"/>
  <path d="M52 25 Q55 15 58 25" fill="#27AE60"/>
  <path d="M45 25 Q50 12 55 25" fill="#229954"/>
</svg>
